<?xml version="1.0" encoding="UTF-8" standalone="no"?>
<svg
   xmlns:dc="http://purl.org/dc/elements/1.1/"
   xmlns:cc="http://creativecommons.org/ns#"
   xmlns:rdf="http://www.w3.org/1999/02/22-rdf-syntax-ns#"
   xmlns:svg="http://www.w3.org/2000/svg"
   xmlns="http://www.w3.org/2000/svg"
   xmlns:sodipodi="http://sodipodi.sourceforge.net/DTD/sodipodi-0.dtd"
   xmlns:inkscape="http://www.inkscape.org/namespaces/inkscape"
   width="100"
   height="100"
   viewBox="0 0 100 100"
   version="1.1"
   id="svg2"
   inkscape:version="0.91 r13725"
   sodipodi:docname="icon.svg"
   inkscape:export-xdpi="57.599998"
   inkscape:export-ydpi="57.599998">
  <metadata
     id="metadata10">
    <rdf:RDF>
      <cc:Work
         rdf:about="">
        <dc:format>image/svg+xml</dc:format>
        <dc:type
           rdf:resource="http://purl.org/dc/dcmitype/StillImage" />
        <dc:title />
      </cc:Work>
    </rdf:RDF>
  </metadata>
  <defs
     id="defs8" />
  <sodipodi:namedview
     pagecolor="#ffffff"
     bordercolor="#666666"
     borderopacity="1"
     objecttolerance="10"
     gridtolerance="10"
     guidetolerance="10"
     inkscape:pageopacity="0"
     inkscape:pageshadow="2"
     inkscape:window-width="1920"
     inkscape:window-height="1018"
     id="namedview6"
     showgrid="true"
     inkscape:object-nodes="true"
     inkscape:snap-smooth-nodes="true"
     inkscape:zoom="2.8284271"
     inkscape:cx="55.016187"
     inkscape:cy="48.737459"
     inkscape:window-x="-8"
     inkscape:window-y="-8"
     inkscape:window-maximized="1"
     inkscape:current-layer="g4154">
    <inkscape:grid
       type="xygrid"
       id="grid4142"
       spacingx="1"
       spacingy="1"
       empspacing="5" />
  </sodipodi:namedview>
  <g
     style="display:inline"
     inkscape:label="Panda"
     id="g4154"
     inkscape:groupmode="layer">
    <path
       style="display:inline;fill:#9ab592;fill-opacity:1;fill-rule:evenodd;stroke:#9ab592;stroke-width:2;stroke-linecap:round;stroke-linejoin:round;stroke-miterlimit:4;stroke-dasharray:none;stroke-opacity:1"
       d="m 18,68 0,-35 30,0 0,35 z"
       id="path4175-9"
       inkscape:connector-curvature="0"
       sodipodi:nodetypes="ccccc" />
    <g
       id="g4192">
      <path
         sodipodi:nodetypes="csccsccscssscsscssscssc"
         id="path4-7"
         d="m 29.408476,47.659118 c 3.17633,0.837979 4.32008,5.529037 5.08974,6.049338 1.56954,1.061024 14.03722,0.504597 14.03722,0.504597 1.04245,-10.203521 1.05548,-7.546269 2.57203,-14.442886 -1.73101,-1.171426 -4.64168,-1.946868 -5.04513,-4.253735 -0.40344,-2.306858 0.22199,-1.864681 0.16321,-5.495121 -1.25286,-2.409509 -1.91806,-5.25244 -2.17632,-8.210685 -2.63245,-1.523847 -5.24462,-0.43051 -5.59919,-4.609947 -0.30765,-3.626284 5.33707,-4.472088 8.48265,-6.543805 6.15913,-7.2058548 11.03838,-6.8455655 15.89726,-6.8455655 4.85888,0 10.60927,3.2753568 15.30432,9.7645755 5.6847,7.857073 9.28939,16.212079 12.58937,26.146716 3.29997,9.934646 3.87579,18.674877 1.33833,27.647344 2.06095,0.675937 4.28895,0.878511 4.5486,3.437848 0.25965,2.559328 -1.10297,4.668051 -3.13965,5.19017 -2.03669,0.52211 -4.00477,-0.121161 -5.7842,-0.539293 -3.36107,3.284487 -7.84229,6.56003 -15.21169,7.986449 -7.3694,1.42642 -23.02122,5.737793 -28.39117,5.490282 -5.36995,-0.247511 -5.97148,-3.614764 -6.82075,-7.433667 -0.84927,-3.818902 -0.22251,-6.60824 -0.16785,-9.867054 -4.83549,0.372139 -12.54072,0.834 -14.26002,0.06928 -2.68076,-1.192375 -4.21663,-8.41117 -2.8841,-16.362466 1.01646,-6.065312 6.00023,-8.48522 9.45734,-7.682375 z"
         style="display:inline;fill:#ffffff;fill-opacity:1;fill-rule:evenodd;stroke:none"
         inkscape:connector-curvature="0" />
      <path
         id="path4"
         d="m 29.408484,47.659118 c 3.176323,0.837979 4.320077,5.529037 5.08974,6.049338 1.569537,1.061024 14.03722,0.504597 14.03722,0.504597 1.04245,-10.203521 1.055476,-7.546269 2.572025,-14.442886 -1.731005,-1.171426 -4.641679,-1.946868 -5.045126,-4.253735 -0.403446,-2.306858 0.221992,-1.864681 0.163211,-5.495121 -1.252862,-2.409509 -1.918059,-5.25244 -2.176328,-8.210685 -2.632444,-1.523847 -5.244614,-0.43051 -5.59919,-4.609947 -0.307646,-3.626284 5.33707,-4.472088 8.482657,-6.543805 6.159129,-7.2058551 11.03838,-6.8455658 15.897259,-6.8455658 4.85888,0 10.609273,3.2753568 15.304317,9.7645758 5.684705,7.857073 9.289391,16.212079 12.589371,26.146716 3.299972,9.934646 3.875789,18.674877 1.338328,27.647344 2.060949,0.675937 4.288951,0.878511 4.548599,3.437848 0.259654,2.559328 -1.102962,4.668051 -3.139649,5.19017 -2.036687,0.52211 -4.004763,-0.121161 -5.784193,-0.539293 -3.361077,3.284487 -7.842291,6.56003 -15.211692,7.986449 -7.369398,1.42642 -23.021218,5.737793 -28.391168,5.490282 -5.36995,-0.247511 -5.971483,-3.614764 -6.820755,-7.433667 -0.849273,-3.818902 -0.222505,-6.60824 -0.167845,-9.867054 -4.835496,0.372139 -12.540724,0.834 -14.260023,0.06928 -2.680761,-1.192375 -4.21663,-8.41117 -2.884106,-16.362466 1.016461,-6.065312 6.000238,-8.48522 9.457348,-7.682376 z m 26.702069,-9.457602 c -1.720881,8.915193 -4.62826,18.688354 -4.928092,25.919744 -0.211043,5.089987 2.106652,6.57792 4.654464,1.808587 4.861458,-9.100322 6.872141,-18.396566 9.43356,-27.864423 -1.19777,0.637493 -2.032754,0.700975 -3.104859,0.961473 1.91513,-1.589785 1.564689,-1.096388 4.075756,-3.790965 3.221725,-3.457169 10.012908,-6.825137 13.21684,-3.908207 4.001243,3.642821 3.005604,12.114411 -0.375802,16.304589 C 77.949357,52.174318 76.229518,57.199895 75,60 c 1.436035,0.828481 6.246264,2.304339 7.591265,5.925434 1.582538,4.260606 0.389869,7.253657 -2.791587,11.252081 7.641963,-5.408128 8.593784,-10.659351 9.213127,-17.623614 0.41178,-4.846919 0.428339,-9.038704 -1.130765,-15.344857 C 86.322937,37.902891 82.364456,29.715275 79.163582,23.844068 75.962708,17.97286 74.515518,13.919462 67.555781,9.743736 62.392688,6.6459664 53.230377,7.816169 49.70897,13.34512 c -3.521407,5.528952 -1.786022,9.935889 0.295869,15.380515 -0.05913,1.714096 -0.996457,3.737973 0.09182,5.005177 1.631942,-0.796266 2.412444,-1.703662 3.848269,-2.297134 -0.01263,1.331432 0.279283,3.64832 -1.022856,4.979752 1.530186,0.971425 1.570769,1.23081 3.188482,1.788086 z"
         style="fill:#34353b;fill-opacity:1;fill-rule:evenodd;stroke:none"
         inkscape:connector-curvature="0" />
    </g>
    <path
       style="fill:#9ab592;fill-opacity:1;fill-rule:evenodd;stroke:#9ab592;stroke-width:2;stroke-linecap:round;stroke-linejoin:round;stroke-miterlimit:4;stroke-dasharray:none;stroke-opacity:1"
       d="M 33,97 3,67 l 15,0 0,-22 30,0 0,22 15,0 z"
       id="path4175"
       inkscape:connector-curvature="0"
       sodipodi:nodetypes="cccccccc" />
  </g>
</svg>
